<svg xmlns="http://www.w3.org/2000/svg" version="1.1" xmlns:xlink="http://www.w3.org/1999/xlink" xmlns:svgjs="http://svgjs.dev/svgjs" width="1500" height="1500" viewBox="0 0 1500 1500"><rect width="1500" height="1500" fill="#4a5d5e"></rect><g transform="matrix(0.6666666666666666,0,0,0.6666666666666666,249.39393939393938,576.4158624207643)"><svg viewBox="0 0 396 137" data-background-color="#4a5d5e" preserveAspectRatio="xMidYMid meet" height="518" width="1500" xmlns="http://www.w3.org/2000/svg" xmlns:xlink="http://www.w3.org/1999/xlink"><g id="tight-bounds" transform="matrix(1,0,0,1,0.2400000000000091,4.405735682647986)"><svg viewBox="0 0 395.52 132.33611570369504" height="132.33611570369504" width="395.52"><g><svg viewBox="0 0 600.7394094745991 200.99999999999997" height="132.33611570369504" width="395.52"><g><rect width="8.235621360520607" height="200.99999999999997" x="231.0313377886989" y="0" fill="#d2dbc8" opacity="1" stroke-width="0" stroke="transparent" fill-opacity="1" class="rect-yte-0" data-fill-palette-color="primary" rx="1%" id="yte-0" data-palette-color="#d2dbc8"></rect></g><g transform="matrix(1,0,0,1,260.82617737047764,0.4999999999999858)"><svg viewBox="0 0 339.91323210412145 200" height="200" width="339.91323210412145"><g id="textblocktransform"><svg viewBox="0 0 339.91323210412145 200" height="200" width="339.91323210412145" id="textblock"><g><svg viewBox="0 0 339.91323210412145 200" height="200" width="339.91323210412145"><g transform="matrix(1,0,0,1,0,0)"><svg width="339.91323210412145" viewBox="1.0999999999999979 -24.979999999999997 118.75000000000001 60.11" height="200" data-palette-color="#d2dbc8"><svg></svg><svg></svg><g class="wordmark-text-0" data-fill-palette-color="primary" id="text-0"><path d="M12.05-2.78h0.6l6.75-21.62h4.2l-7.92 24.4h-6.65l-7.93-24.4h4.2zM46.5 0h-4.02l0.17-5.93-0.15-0.62v-7.78l0.03-1.42c0-1.987-0.507-3.453-1.52-4.4-1.007-0.953-2.6-1.43-4.78-1.43v0c-1.753 0-3.36 0.25-4.82 0.75-1.453 0.5-2.747 1.087-3.88 1.76v0l0.37-3.46c0.633-0.38 1.387-0.757 2.26-1.13 0.88-0.38 1.88-0.693 3-0.94 1.127-0.253 2.367-0.38 3.72-0.38v0c1.747 0 3.233 0.213 4.46 0.64 1.227 0.427 2.217 1.04 2.97 1.84 0.76 0.8 1.317 1.767 1.67 2.9 0.347 1.133 0.52 2.4 0.52 3.8v0zM34.08 0.53v0c-2.42 0-4.277-0.59-5.57-1.77-1.287-1.173-1.93-2.853-1.93-5.04v0-0.72c0-2.253 0.693-3.933 2.08-5.04 1.393-1.107 3.607-1.877 6.64-2.31v0l7.73-1.1 0.22 2.95-7.45 1.07c-1.867 0.267-3.2 0.723-4 1.37-0.8 0.64-1.2 1.583-1.2 2.83v0 0.4c0 1.287 0.397 2.27 1.19 2.95 0.793 0.687 1.98 1.03 3.56 1.03v0c1.4 0 2.6-0.243 3.6-0.73 1-0.48 1.81-1.13 2.43-1.95 0.613-0.813 1.03-1.72 1.25-2.72v0l0.62 2.75h-0.77c-0.233 1.067-0.673 2.057-1.32 2.97-0.64 0.92-1.533 1.66-2.68 2.22-1.153 0.56-2.62 0.84-4.4 0.84zM73.08 0h-4.05v-15.18c0-1.313-0.18-2.443-0.54-3.39-0.36-0.953-0.943-1.693-1.75-2.22-0.807-0.527-1.91-0.79-3.31-0.79v0c-1.287 0-2.4 0.243-3.34 0.73-0.94 0.48-1.703 1.133-2.29 1.96-0.58 0.827-0.987 1.767-1.22 2.82v0l-0.73-2.88h0.88c0.267-1.1 0.733-2.103 1.4-3.01 0.667-0.913 1.56-1.64 2.68-2.18 1.127-0.54 2.507-0.81 4.14-0.81v0c1.933 0 3.497 0.367 4.69 1.1 1.193 0.733 2.063 1.787 2.61 3.16 0.553 1.373 0.83 3.06 0.83 5.06v0zM56.75 0h-4.05v-24.4h4.05l-0.17 5.85 0.17 0.23z" fill="#d2dbc8" fill-rule="nonzero" stroke="none" stroke-width="1" stroke-linecap="butt" stroke-linejoin="miter" stroke-miterlimit="10" stroke-dasharray="" stroke-dashoffset="0" font-family="none" font-weight="none" font-size="none" text-anchor="none" style="mix-blend-mode: normal" data-fill-palette-color="primary" opacity="1"></path><path transform="translate(0,34.58)" d="M13.55 0.55v0c-3.713 0-6.513-0.91-8.4-2.73-1.88-1.813-2.82-4.413-2.82-7.8v0-4.35c0-3.433 0.873-6.077 2.62-7.93 1.753-1.86 4.313-2.79 7.68-2.79v0c2.267 0 4.157 0.42 5.67 1.26 1.52 0.84 2.663 2.037 3.43 3.59 0.767 1.547 1.15 3.397 1.15 5.55v0 0.9c0 0.533-0.023 1.067-0.07 1.6-0.04 0.533-0.093 1.057-0.16 1.57v0h-3.72c0.033-0.8 0.053-1.557 0.06-2.27 0.007-0.72 0.01-1.38 0.01-1.98v0c0-1.48-0.237-2.733-0.71-3.76-0.48-1.027-1.19-1.81-2.13-2.35-0.94-0.54-2.117-0.81-3.53-0.81v0c-2.107 0-3.683 0.607-4.73 1.82-1.047 1.22-1.57 2.963-1.57 5.23v0 2.32l0.02 0.5v2.33c0 1.013 0.15 1.93 0.45 2.75 0.3 0.813 0.77 1.517 1.41 2.11 0.647 0.593 1.463 1.043 2.45 1.35 0.993 0.307 2.173 0.46 3.54 0.46v0c1.58 0 3.057-0.207 4.43-0.62 1.367-0.42 2.65-0.987 3.85-1.7v0l-0.38 3.5c-1.08 0.68-2.34 1.227-3.78 1.64-1.427 0.407-3.017 0.61-4.77 0.61zM21.8-10.58h-17.35v-3.05h17.35zM37.03-2.78h0.6l6.75-21.62h4.2l-7.93 24.4h-6.65l-7.92-24.4h4.2zM63.23 0.55v0c-3.72 0-6.52-0.91-8.4-2.73-1.887-1.813-2.83-4.413-2.83-7.8v0-4.35c0-3.433 0.877-6.077 2.63-7.93 1.747-1.86 4.303-2.79 7.67-2.79v0c2.267 0 4.16 0.42 5.68 1.26 1.513 0.84 2.653 2.037 3.42 3.59 0.767 1.547 1.15 3.397 1.15 5.55v0 0.9c0 0.533-0.02 1.067-0.06 1.6-0.04 0.533-0.093 1.057-0.16 1.57v0h-3.73c0.033-0.8 0.053-1.557 0.06-2.27 0.013-0.72 0.02-1.38 0.02-1.98v0c0-1.48-0.24-2.733-0.72-3.76-0.473-1.027-1.18-1.81-2.12-2.35-0.94-0.54-2.12-0.81-3.54-0.81v0c-2.1 0-3.673 0.607-4.72 1.82-1.053 1.22-1.58 2.963-1.58 5.23v0 2.32l0.03 0.5v2.33c0 1.013 0.15 1.93 0.45 2.75 0.3 0.813 0.77 1.517 1.41 2.11 0.64 0.593 1.457 1.043 2.45 1.35 0.993 0.307 2.173 0.46 3.54 0.46v0c1.58 0 3.053-0.207 4.42-0.62 1.367-0.42 2.65-0.987 3.85-1.7v0l-0.37 3.5c-1.087 0.68-2.347 1.227-3.78 1.64-1.433 0.407-3.023 0.61-4.77 0.61zM71.48-10.58h-17.35v-3.05h17.35zM98.33 0h-4.05v-15.18c0-1.313-0.18-2.443-0.54-3.39-0.36-0.953-0.943-1.693-1.75-2.22-0.807-0.527-1.91-0.79-3.31-0.79v0c-1.287 0-2.4 0.243-3.34 0.73-0.94 0.48-1.703 1.133-2.29 1.96-0.58 0.827-0.987 1.767-1.22 2.82v0l-0.73-2.88h0.88c0.267-1.1 0.733-2.103 1.4-3.01 0.667-0.913 1.56-1.64 2.68-2.18 1.127-0.54 2.507-0.81 4.14-0.81v0c1.933 0 3.497 0.367 4.69 1.1 1.193 0.733 2.063 1.787 2.61 3.16 0.553 1.373 0.83 3.06 0.83 5.06v0zM82 0h-4.05v-24.4h4.05l-0.17 5.85 0.17 0.23zM113.48 0.5v0c-1.887 0-3.403-0.283-4.55-0.85-1.153-0.567-1.987-1.427-2.5-2.58-0.52-1.147-0.78-2.58-0.78-4.3v0-15.4h4v14.93c0 1.6 0.367 2.78 1.1 3.54 0.733 0.753 1.967 1.13 3.7 1.13v0c0.987 0 1.933-0.107 2.84-0.32 0.907-0.22 1.76-0.53 2.56-0.93v0l-0.37 3.48c-0.787 0.4-1.703 0.717-2.75 0.95-1.053 0.233-2.137 0.35-3.25 0.35zM119.23-20.8h-17.58v-3.25h17.95zM109.55-23.65h-3.87l-0.03-6.85 4.08-0.53z" fill="#d2dbc8" fill-rule="nonzero" stroke="none" stroke-width="1" stroke-linecap="butt" stroke-linejoin="miter" stroke-miterlimit="10" stroke-dasharray="" stroke-dashoffset="0" font-family="none" font-weight="none" font-size="none" text-anchor="none" style="mix-blend-mode: normal" data-fill-palette-color="primary" opacity="1"></path></g></svg></g></svg></g></svg></g></svg></g><g transform="matrix(1,0,0,1,0,0.4999999999999858)"><svg viewBox="0 0 209.47211956744076 200" height="200" width="209.47211956744076"><g><svg xmlns="http://www.w3.org/2000/svg" xmlns:xlink="http://www.w3.org/1999/xlink" version="1.1" x="0" y="0" viewBox="6.11 7.911 76.804 73.331" enable-background="new 0 0 90 90" xml:space="preserve" height="200" width="209.47211956744076" class="icon-icon-0" data-fill-palette-color="accent" id="icon-0"><g fill="#f8f8ec" data-fill-palette-color="accent"><path d="M82.914 22.033A1.5 1.5 0 0 0 81.414 20.533H67.719A1.5 1.5 0 0 0 66.219 22.033V27.935C66.219 28.053 66.236 28.167 66.262 28.277V34.699A4 4 0 0 0 65.257 34.556C63.049 34.556 61.253 36.352 61.253 38.56S63.049 42.564 65.257 42.564 69.262 40.768 69.262 38.56C69.262 38.338 69.231 38.125 69.197 37.913A1.5 1.5 0 0 0 69.262 37.498V29.435H79.9V34.699A4 4 0 0 0 78.896 34.556C76.688 34.556 74.892 36.352 74.892 38.56S76.688 42.564 78.896 42.564 82.9 40.768 82.9 38.56C82.9 38.338 82.869 38.125 82.835 37.913A1.5 1.5 0 0 0 82.9 37.498V28.071C82.904 28.026 82.914 27.982 82.914 27.935zM69.219 23.533H79.913V26.435H69.219zM65.257 39.565A1.005 1.005 0 0 1 64.253 38.561 1.005 1.005 0 0 1 66.262 38.561C66.262 39.114 65.811 39.565 65.257 39.565M78.896 39.565C78.342 39.565 77.892 39.114 77.892 38.561S78.342 37.557 78.896 37.557A1.004 1.004 0 1 1 78.896 39.565" fill="#f8f8ec" data-fill-palette-color="accent"></path><path d="M14.119 36.287C14.119 35.798 14.018 35.335 13.857 34.902V29.516L24.551 27.476V32.447A4 4 0 0 0 23.48 32.283C21.272 32.283 19.475 34.079 19.475 36.287S21.272 40.291 23.48 40.291 27.484 38.495 27.484 36.287C27.484 36.121 27.455 35.964 27.435 35.803 27.51 35.625 27.551 35.43 27.551 35.224V19.76A1.5 1.5 0 0 0 25.77 18.286L12.076 20.898A1.5 1.5 0 0 0 10.857 22.372V32.358A4 4 0 0 0 10.114 32.283C7.906 32.283 6.11 34.079 6.11 36.287S7.906 40.291 10.114 40.291 14.119 38.495 14.119 36.287M23.48 37.292C22.926 37.292 22.475 36.841 22.475 36.288S22.926 35.284 23.48 35.284A1.005 1.005 0 0 1 23.48 37.292M13.857 23.613L24.551 21.573V24.422L13.857 26.462zM10.114 37.292C9.56 37.292 9.11 36.841 9.11 36.288S9.56 35.284 10.114 35.284C10.485 35.284 10.797 35.495 10.971 35.795 10.993 35.848 11.023 35.897 11.05 35.946 11.089 36.053 11.119 36.166 11.119 36.287 11.119 36.841 10.667 37.292 10.114 37.292" fill="#f8f8ec" data-fill-palette-color="accent"></path><path d="M67.062 58.822C67.049 49.227 60.969 41.029 52.46 37.862V32.473A1.5 1.5 0 0 0 50.96 30.973H46.298V9.411A1.5 1.5 0 1 0 43.298 9.411V30.973H38.444A1.5 1.5 0 0 0 36.944 32.473V37.839C28.404 40.99 22.297 49.205 22.284 58.822 22.254 58.94 22.233 59.062 22.233 59.189 22.233 59.338 22.262 59.48 22.302 59.616 22.707 71.609 32.583 81.242 44.672 81.242S66.638 71.609 67.042 59.616C67.083 59.48 67.111 59.338 67.111 59.189A1.4 1.4 0 0 0 67.062 58.822M61.398 68.617H56.459C57.165 66.204 57.607 63.535 57.728 60.69H63.97A19.2 19.2 0 0 1 61.398 68.617M25.377 60.69H31.62C31.741 63.535 32.183 66.205 32.889 68.617H27.949A19.2 19.2 0 0 1 25.377 60.69M27.558 49.762H32.834C32.145 52.179 31.721 54.849 31.615 57.689H25.343C25.513 54.84 26.284 52.152 27.558 49.762M46.173 46.762V40.758C48.506 41.43 50.6 43.624 52.139 46.762zM53.347 49.762C54.12 52.138 54.612 54.832 54.735 57.689H46.173V49.762zM43.173 40.759V46.763H37.208C38.748 43.625 40.841 41.431 43.173 40.759M43.173 49.762V57.689H34.612C34.735 54.832 35.227 52.138 36 49.762zM34.618 60.69H43.173V68.617H36.065C35.273 66.247 34.758 63.554 34.618 60.69M43.173 71.617V77.428C40.889 76.77 38.833 74.652 37.303 71.617zM46.173 77.428V71.617H52.044C50.514 74.652 48.458 76.77 46.173 77.428M46.173 68.617V60.69H54.729C54.589 63.554 54.074 66.247 53.282 68.617zM57.733 57.69C57.627 54.849 57.202 52.179 56.514 49.763H61.647C61.693 49.763 61.737 49.753 61.782 49.749A19.3 19.3 0 0 1 64.004 57.69zM59.806 46.762H55.481C54.48 44.361 53.186 42.338 51.682 40.794A19.5 19.5 0 0 1 59.806 46.762M39.945 33.973H49.461V36.984A22.4 22.4 0 0 0 44.674 36.463C43.052 36.463 41.471 36.641 39.945 36.97zM37.666 40.794C36.161 42.338 34.867 44.361 33.867 46.762H29.54A19.47 19.47 0 0 1 37.666 40.794M30.114 71.617H33.953C34.785 73.565 35.81 75.26 36.985 76.646A19.5 19.5 0 0 1 30.114 71.617M52.362 76.645C53.538 75.26 54.562 73.565 55.394 71.617H59.232A19.5 19.5 0 0 1 52.362 76.645" fill="#f8f8ec" data-fill-palette-color="accent"></path><path d="M20.295 47.815L14.531 45.342A1.501 1.501 0 0 0 13.347 48.099L19.111 50.572A1.5 1.5 0 0 0 21.082 49.785 1.5 1.5 0 0 0 20.295 47.815" fill="#f8f8ec" data-fill-palette-color="accent"></path><path d="M18.341 69.122L12.577 71.595A1.5 1.5 0 0 0 13.761 74.352L19.525 71.879A1.5 1.5 0 0 0 18.341 69.122" fill="#f8f8ec" data-fill-palette-color="accent"></path><path d="M12.664 61.353L18.935 61.34A1.5 1.5 0 0 0 18.932 58.34H18.929L12.658 58.353A1.5 1.5 0 0 0 12.661 61.353z" fill="#f8f8ec" data-fill-palette-color="accent"></path><path d="M70.259 50.693C70.456 50.693 70.656 50.654 70.85 50.571L76.614 48.098A1.5 1.5 0 0 0 75.43 45.341L69.666 47.814A1.5 1.5 0 0 0 70.259 50.693" fill="#f8f8ec" data-fill-palette-color="accent"></path><path d="M75.383 71.594L69.62 69.121A1.501 1.501 0 0 0 68.436 71.878L74.199 74.351A1.5 1.5 0 0 0 76.17 73.564 1.5 1.5 0 0 0 75.383 71.594" fill="#f8f8ec" data-fill-palette-color="accent"></path><path d="M77.303 58.353L71.032 58.34H71.029A1.5 1.5 0 0 0 71.026 61.34L77.297 61.353H77.3A1.5 1.5 0 0 0 77.303 58.353" fill="#f8f8ec" data-fill-palette-color="accent"></path></g></svg></g></svg></g></svg></g><defs></defs></svg><rect width="395.52" height="132.33611570369504" fill="none" stroke="none" visibility="hidden"></rect></g></svg></g></svg>